<mxfile host="app.diagrams.net" modified="2024-04-01T02:13:07.469Z" agent="Mozilla/5.0 (Macintosh; Intel Mac OS X 10_15_7) AppleWebKit/605.1.15 (KHTML, like Gecko) Version/17.4 Safari/605.1.15" etag="DxaOAeMfRUR5zGFk5rt5" version="24.1.0" type="device">
  <diagram name="Page-1" id="QNVAXEFG_coX6fo7xSKH">
    <mxGraphModel dx="984" dy="667" grid="1" gridSize="10" guides="1" tooltips="1" connect="1" arrows="1" fold="1" page="1" pageScale="1" pageWidth="827" pageHeight="1169" math="0" shadow="0">
      <root>
        <mxCell id="0" />
        <mxCell id="1" parent="0" />
        <mxCell id="DXjjxYE0g-5OhmQiskfD-33" value="" style="rounded=0;whiteSpace=wrap;html=1;fontColor=#E6E6E6;" vertex="1" parent="1">
          <mxGeometry x="110" y="160" width="670" height="530" as="geometry" />
        </mxCell>
        <mxCell id="DXjjxYE0g-5OhmQiskfD-1" value="&lt;font style=&quot;font-size: 24px;&quot;&gt;&lt;span style=&quot;caret-color: rgb(204, 0, 0);&quot;&gt;&lt;font color=&quot;#9933ff&quot;&gt;float&lt;/font&gt;&lt;/span&gt; &amp;nbsp; &amp;nbsp;&lt;font color=&quot;#0000ff&quot;&gt;incValue&amp;nbsp;&lt;/font&gt;( &amp;nbsp;&lt;font color=&quot;#9933ff&quot;&gt;int&lt;/font&gt;&amp;nbsp; &amp;nbsp;&amp;nbsp;&lt;font color=&quot;#336600&quot;&gt;a&lt;/font&gt; &amp;nbsp; &amp;nbsp;, &amp;nbsp; &lt;font color=&quot;#9933ff&quot;&gt;float&lt;/font&gt;&amp;nbsp; &amp;nbsp;&amp;nbsp;&lt;font color=&quot;#336600&quot;&gt;b&lt;/font&gt; &amp;nbsp;)&amp;nbsp;&lt;/font&gt;&lt;div style=&quot;font-size: 24px;&quot;&gt;&lt;font style=&quot;font-size: 24px;&quot;&gt;{ &amp;nbsp;&lt;/font&gt;&lt;div&gt;&lt;font style=&quot;font-size: 24px;&quot;&gt;&amp;nbsp;&amp;nbsp;&lt;/font&gt;&lt;div&gt;&lt;font style=&quot;font-size: 24px;&quot;&gt;&amp;nbsp; &amp;nbsp; &amp;nbsp; &amp;nbsp; &amp;nbsp;a = a + 1;&amp;nbsp;&lt;/font&gt;&lt;/div&gt;&lt;div&gt;&lt;font style=&quot;font-size: 24px;&quot;&gt;&amp;nbsp; &amp;nbsp; &amp;nbsp; &amp;nbsp; &amp;nbsp;b = b / 2 + a; &amp;nbsp; &amp;nbsp;&amp;nbsp;&lt;/font&gt;&lt;/div&gt;&lt;div&gt;&lt;font style=&quot;font-size: 24px;&quot;&gt;&amp;nbsp;&lt;/font&gt;&lt;/div&gt;&lt;div&gt;&lt;font style=&quot;font-size: 24px;&quot;&gt;&amp;nbsp; &amp;nbsp; &amp;nbsp; &amp;nbsp; &amp;nbsp;return &amp;nbsp; &amp;nbsp;&lt;font color=&quot;#660000&quot;&gt;b&lt;/font&gt;;&lt;/font&gt;&lt;/div&gt;&lt;div&gt;&lt;font style=&quot;font-size: 24px;&quot;&gt;}&lt;/font&gt;&lt;/div&gt;&lt;/div&gt;&lt;/div&gt;" style="text;html=1;align=left;verticalAlign=middle;whiteSpace=wrap;rounded=0;" vertex="1" parent="1">
          <mxGeometry x="200" y="180" width="560" height="460" as="geometry" />
        </mxCell>
        <mxCell id="DXjjxYE0g-5OhmQiskfD-4" value="" style="strokeWidth=2;html=1;shape=mxgraph.flowchart.annotation_2;align=left;labelPosition=right;pointerEvents=1;rotation=90;fillColor=#fa6800;fontColor=#CC99FF;strokeColor=#C73500;" vertex="1" parent="1">
          <mxGeometry x="195" y="250" width="50" height="50" as="geometry" />
        </mxCell>
        <mxCell id="DXjjxYE0g-5OhmQiskfD-5" value="" style="strokeWidth=2;html=1;shape=mxgraph.flowchart.annotation_2;align=left;labelPosition=right;pointerEvents=1;rotation=90;fillColor=#fa6800;fontColor=#CC99FF;strokeColor=#C73500;" vertex="1" parent="1">
          <mxGeometry x="293.75" y="226.25" width="50" height="97.5" as="geometry" />
        </mxCell>
        <mxCell id="DXjjxYE0g-5OhmQiskfD-6" value="" style="strokeWidth=2;html=1;shape=mxgraph.flowchart.annotation_2;align=left;labelPosition=right;pointerEvents=1;rotation=90;fillColor=#fa6800;fontColor=#CC99FF;strokeColor=#C73500;" vertex="1" parent="1">
          <mxGeometry x="380" y="255" width="50" height="40" as="geometry" />
        </mxCell>
        <mxCell id="DXjjxYE0g-5OhmQiskfD-7" value="" style="strokeWidth=2;html=1;shape=mxgraph.flowchart.annotation_2;align=left;labelPosition=right;pointerEvents=1;rotation=90;fillColor=#fa6800;fontColor=#CC99FF;strokeColor=#C73500;" vertex="1" parent="1">
          <mxGeometry x="430" y="260" width="50" height="30" as="geometry" />
        </mxCell>
        <mxCell id="DXjjxYE0g-5OhmQiskfD-8" value="" style="strokeWidth=2;html=1;shape=mxgraph.flowchart.annotation_2;align=left;labelPosition=right;pointerEvents=1;rotation=90;fillColor=#fa6800;fontColor=#CC99FF;strokeColor=#C73500;" vertex="1" parent="1">
          <mxGeometry x="510" y="245" width="50" height="60" as="geometry" />
        </mxCell>
        <mxCell id="DXjjxYE0g-5OhmQiskfD-9" value="" style="strokeWidth=2;html=1;shape=mxgraph.flowchart.annotation_2;align=left;labelPosition=right;pointerEvents=1;rotation=90;fillColor=#fa6800;fontColor=#CC99FF;strokeColor=#C73500;" vertex="1" parent="1">
          <mxGeometry x="565" y="260" width="50" height="30" as="geometry" />
        </mxCell>
        <mxCell id="DXjjxYE0g-5OhmQiskfD-11" value="" style="strokeWidth=2;html=1;shape=mxgraph.flowchart.annotation_2;align=left;labelPosition=right;pointerEvents=1;rotation=-180;fillColor=#fa6800;fontColor=#CC99FF;strokeColor=#C73500;" vertex="1" parent="1">
          <mxGeometry x="585" y="380" width="50" height="80" as="geometry" />
        </mxCell>
        <mxCell id="DXjjxYE0g-5OhmQiskfD-12" value="" style="strokeWidth=2;html=1;shape=mxgraph.flowchart.annotation_2;align=left;labelPosition=right;pointerEvents=1;rotation=-180;fillColor=#fa6800;fontColor=#CDA2BE;strokeColor=#C73500;" vertex="1" parent="1">
          <mxGeometry x="495" y="460" width="50" height="50" as="geometry" />
        </mxCell>
        <mxCell id="DXjjxYE0g-5OhmQiskfD-15" value="Return&amp;nbsp;&lt;div style=&quot;font-size: 13px;&quot;&gt;type&lt;/div&gt;" style="text;html=1;align=center;verticalAlign=middle;whiteSpace=wrap;rounded=0;fontSize=13;fontStyle=1" vertex="1" parent="1">
          <mxGeometry x="195" y="210" width="60" height="30" as="geometry" />
        </mxCell>
        <mxCell id="DXjjxYE0g-5OhmQiskfD-16" value="Function&lt;div style=&quot;font-size: 13px;&quot;&gt;name&lt;/div&gt;" style="text;html=1;align=center;verticalAlign=middle;whiteSpace=wrap;rounded=0;fontSize=13;fontStyle=1" vertex="1" parent="1">
          <mxGeometry x="290" y="210" width="60" height="30" as="geometry" />
        </mxCell>
        <mxCell id="DXjjxYE0g-5OhmQiskfD-17" value="Arg&lt;div style=&quot;font-size: 13px;&quot;&gt;type 1&lt;/div&gt;" style="text;html=1;align=center;verticalAlign=middle;whiteSpace=wrap;rounded=0;fontSize=13;fontStyle=1" vertex="1" parent="1">
          <mxGeometry x="370" y="210" width="60" height="30" as="geometry" />
        </mxCell>
        <mxCell id="DXjjxYE0g-5OhmQiskfD-18" value="Arg1&lt;div style=&quot;font-size: 13px;&quot;&gt;&lt;br style=&quot;font-size: 13px;&quot;&gt;&lt;/div&gt;" style="text;html=1;align=center;verticalAlign=middle;whiteSpace=wrap;rounded=0;fontSize=13;fontStyle=1" vertex="1" parent="1">
          <mxGeometry x="435" y="210" width="60" height="30" as="geometry" />
        </mxCell>
        <mxCell id="DXjjxYE0g-5OhmQiskfD-19" value="Argt&lt;div style=&quot;font-size: 13px;&quot;&gt;type 2&lt;/div&gt;" style="text;html=1;align=center;verticalAlign=middle;whiteSpace=wrap;rounded=0;fontSize=13;fontStyle=1" vertex="1" parent="1">
          <mxGeometry x="505" y="210" width="60" height="30" as="geometry" />
        </mxCell>
        <mxCell id="DXjjxYE0g-5OhmQiskfD-20" value="Arg2" style="text;html=1;align=center;verticalAlign=middle;whiteSpace=wrap;rounded=0;fontSize=13;fontStyle=1" vertex="1" parent="1">
          <mxGeometry x="565" y="210" width="60" height="30" as="geometry" />
        </mxCell>
        <mxCell id="DXjjxYE0g-5OhmQiskfD-21" value="Function body" style="text;html=1;align=center;verticalAlign=middle;whiteSpace=wrap;rounded=0;fontSize=13;fontStyle=1" vertex="1" parent="1">
          <mxGeometry x="660" y="405" width="60" height="30" as="geometry" />
        </mxCell>
        <mxCell id="DXjjxYE0g-5OhmQiskfD-24" value="" style="strokeWidth=2;html=1;shape=mxgraph.flowchart.annotation_2;align=left;labelPosition=right;pointerEvents=1;rotation=-90;fillColor=#fa6800;fontColor=#CC99FF;strokeColor=#C73500;" vertex="1" parent="1">
          <mxGeometry x="335" y="500" width="50" height="30" as="geometry" />
        </mxCell>
        <mxCell id="DXjjxYE0g-5OhmQiskfD-25" value="Return&amp;nbsp;&lt;div style=&quot;font-size: 13px;&quot;&gt;statement&lt;/div&gt;" style="text;html=1;align=center;verticalAlign=middle;whiteSpace=wrap;rounded=0;fontSize=13;fontStyle=1" vertex="1" parent="1">
          <mxGeometry x="550" y="470" width="60" height="30" as="geometry" />
        </mxCell>
        <mxCell id="DXjjxYE0g-5OhmQiskfD-28" value="" style="strokeWidth=2;html=1;shape=mxgraph.flowchart.annotation_2;align=left;labelPosition=right;pointerEvents=1;rotation=-90;fillColor=#fa6800;fontColor=#000000;strokeColor=#C73500;" vertex="1" parent="1">
          <mxGeometry x="486.25" y="243.75" width="30" height="212.5" as="geometry" />
        </mxCell>
        <mxCell id="DXjjxYE0g-5OhmQiskfD-29" value="Argument&amp;nbsp;&lt;div style=&quot;font-size: 13px;&quot;&gt;list&lt;/div&gt;" style="text;html=1;align=center;verticalAlign=middle;whiteSpace=wrap;rounded=0;fontSize=13;fontStyle=1" vertex="1" parent="1">
          <mxGeometry x="471.25" y="370" width="60" height="30" as="geometry" />
        </mxCell>
        <mxCell id="DXjjxYE0g-5OhmQiskfD-30" value="Return&amp;nbsp;&lt;div style=&quot;font-size: 13px;&quot;&gt;value&lt;/div&gt;" style="text;html=1;align=center;verticalAlign=middle;whiteSpace=wrap;rounded=0;fontSize=13;fontStyle=1" vertex="1" parent="1">
          <mxGeometry x="335" y="550" width="60" height="30" as="geometry" />
        </mxCell>
      </root>
    </mxGraphModel>
  </diagram>
</mxfile>
